<svg width="221" height="82" viewBox="0 0 221 82" fill="none" xmlns="http://www.w3.org/2000/svg">
<path id="Ellipse 1" d="M204.353 9.18922C209.964 11.6345 214.261 14.5644 216.972 17.9295L215.804 18.8705C217.391 20.8397 218.347 22.9202 218.67 25.1078C218.993 27.2954 218.679 29.5634 217.73 31.9071L219.12 32.4703C217.498 36.4755 214.231 40.5227 209.567 44.4858L208.596 43.3427C205.185 46.2413 200.981 49.1148 196.075 51.9048L196.817 53.2086C192.65 55.5782 188.004 57.8771 182.939 60.0737L182.342 58.6975C177.881 60.6323 173.087 62.4893 168.004 64.2459L168.493 65.6636C163.793 67.2877 158.851 68.825 153.7 70.2587L153.297 68.8136C148.49 70.1514 143.499 71.3989 138.351 72.5417L138.676 74.006C133.746 75.1005 128.674 76.0992 123.483 76.9899L123.23 75.5115C120.716 75.9429 118.175 76.3488 115.609 76.7279C113.042 77.107 110.492 77.4531 107.962 77.7668L108.146 79.2555C102.92 79.9034 97.7759 80.4139 92.7397 80.7916L92.6275 79.2958C87.3687 79.6903 82.2299 79.9393 77.2415 80.0484L77.2743 81.5481C71.9286 81.665 66.7527 81.6223 61.7838 81.4265L61.8428 79.9277C56.4684 79.716 51.3425 79.3243 46.5124 78.762L46.3389 80.2519C40.8552 79.6135 35.7425 78.7563 31.0689 77.6926L31.4017 76.23C25.8989 74.9775 21.0442 73.4421 16.9405 71.6536L16.3412 73.0287C10.7305 70.5833 6.43316 67.6535 3.72206 64.2884L4.89012 63.3473C3.30362 61.3782 2.34785 59.2977 2.0247 57.1101C1.70155 54.9225 2.01498 52.6545 2.96439 50.3108L1.57412 49.7476C3.19651 45.7424 6.46318 41.6952 11.1273 37.7321L12.0985 38.8752C15.5099 35.9766 19.7133 33.1031 24.619 30.3131L23.8775 29.0092C28.044 26.6396 32.6904 24.3408 37.7554 22.1442L38.3522 23.5204C42.8135 21.5856 47.6072 19.7286 52.6909 17.972L52.201 16.5543C56.9011 14.9302 61.8436 13.3928 66.9948 11.9592L67.397 13.4043C72.2039 12.0664 77.1952 10.819 82.3434 9.6762L82.0184 8.21185C86.9487 7.1174 92.0209 6.1187 97.2112 5.22795L97.4649 6.70634C99.9781 6.27502 102.519 5.86911 105.086 5.49002C107.652 5.11092 110.202 4.76478 112.733 4.45103L112.548 2.96242C117.774 2.31448 122.919 1.80401 127.955 1.42624L128.067 2.92203C133.326 2.52756 138.464 2.27859 143.453 2.16946L143.42 0.669823C148.766 0.552878 153.942 0.595619 158.911 0.791359L158.852 2.2902C164.226 2.50191 169.352 2.89359 174.182 3.45589L174.355 1.96595C179.839 2.60433 184.952 3.46156 189.626 4.5253L189.293 5.9879C194.796 7.24037 199.65 8.77577 203.754 10.5643L204.353 9.18922Z" stroke="#18C2C2" stroke-width="3" stroke-dasharray="14 14"/>
</svg>
