<svg width="124" height="124" viewBox="0 0 124 124" fill="none" xmlns="http://www.w3.org/2000/svg">
<g id="material-symbols-light:rocket-outline">
<path id="Vector" d="M97.4691 82.4581L91.4222 71.9335C88.6282 73.3078 85.7626 74.5467 82.8253 75.6501C79.8876 76.7505 76.8827 77.669 73.8106 78.4055L78.5459 83.7724C78.891 84.1354 79.2648 84.3937 79.6674 84.5474C80.0699 84.701 80.5005 84.7455 80.9592 84.6808L97.4691 82.4581ZM90.2917 67.4754L87.8727 49.4705C84.0572 48.6084 79.9365 48.0546 75.5105 47.8091C71.0844 47.5636 66.5353 47.7548 61.863 48.3825C55.0692 49.2953 48.9531 51.171 43.5147 54.0096C38.0763 56.8482 33.0205 61.0559 28.3472 66.6329C34.3327 70.7778 40.3214 73.5017 46.3131 74.8046C52.3049 76.1075 58.6992 76.3024 65.496 75.3892C70.1713 74.7611 74.6096 73.7447 78.8109 72.3402C83.0122 70.9356 86.8391 69.314 90.2917 67.4754ZM64.3254 61.7991C64.5806 63.6986 64.1444 65.3855 63.0166 66.8598C61.8922 68.3368 60.3803 69.2028 58.4807 69.458C56.5812 69.7133 54.8943 69.277 53.42 68.1492C51.9456 67.0214 51.0796 65.5095 50.8218 63.6133C50.564 61.7172 51.0003 60.0303 52.1306 58.5526C53.255 57.0756 54.767 56.2096 56.6665 55.9544C58.566 55.6992 60.2529 56.1355 61.7272 57.2632C63.2016 58.391 64.0676 59.903 64.3254 61.7991ZM90.841 33.1247L74.4205 35.3308C73.9584 35.3929 73.5396 35.55 73.1641 35.8021C72.7864 36.0606 72.4792 36.4119 72.2426 36.8561L69.0911 43.278C72.2487 43.1776 75.7024 43.3032 79.4523 43.6548C83.2022 44.0063 86.0087 44.4083 87.8719 44.8606L90.841 33.1247ZM22.4055 67.4311C27.0861 60.4754 32.689 55.0867 39.2142 51.265C45.739 47.4404 53.2461 44.9577 61.7354 43.8172C62.0805 43.7708 62.4386 43.7074 62.8096 43.627C63.1807 43.5466 63.5728 43.5092 63.986 43.5148L68.1987 34.9982C68.7095 33.8664 69.4695 32.9288 70.4786 32.1853C71.4877 31.4418 72.5998 30.9884 73.8152 30.8251L96.8479 27.7306L92.0679 46.5881L95.1104 69.2338L104.687 86.0754L81.5685 89.1814C80.3561 89.3443 79.1655 89.2141 77.9966 88.7907C76.8311 88.3699 75.8526 87.6811 75.0612 86.7243L68.734 79.5367L66.5734 79.827C58.0811 80.9679 50.185 80.5548 42.885 78.5875C35.5825 76.6236 28.756 72.9048 22.4055 67.4311Z" fill="black"/>
</g>
</svg>
