<svg width="151" height="151" viewBox="0 0 151 151" fill="none" xmlns="http://www.w3.org/2000/svg">
<g id="material-symbols-light:rocket-outline" clip-path="url(#clip0_146_605)">
<path id="Vector" d="M60.7995 37.045L58.7667 49.0117C61.7966 49.7294 64.7955 50.5973 67.7634 51.6153C70.7298 52.6358 73.6323 53.8395 76.4708 55.2262L76.2332 48.0729C76.198 47.5733 76.074 47.1361 75.8613 46.7615C75.6486 46.3868 75.3447 46.0784 74.9497 45.8364L60.7995 37.045ZM56.8019 53.17L47.2106 68.5984C49.6052 71.6913 52.4315 74.7408 55.6895 77.7466C58.9476 80.7525 62.5785 83.4999 66.5821 85.9889C72.4037 89.608 78.3153 92.0531 84.3168 93.3241C90.3183 94.5951 96.896 94.5665 104.05 93.2383C102.07 86.232 99.1839 80.3199 95.391 75.5019C91.5981 70.684 86.7895 66.4647 80.9653 62.844C76.9591 60.3534 72.8886 58.3131 68.7539 56.7231C64.6192 55.1331 60.6352 53.9488 56.8019 53.17ZM73.2202 74.0723C74.2321 72.4446 75.6421 71.421 77.4503 71.0013C79.2575 70.5775 80.9749 70.8716 82.6026 71.8835C84.2303 72.8953 85.254 74.3054 85.6736 76.1135C86.0932 77.9217 85.7992 79.6391 84.7915 81.2658C83.7837 82.8926 82.3737 83.9162 80.5614 84.3368C78.7542 84.7606 77.0368 84.4666 75.4091 83.4547C73.7814 82.4428 72.7577 81.0328 72.3381 79.2246C71.9185 77.4165 72.2125 75.699 73.2202 74.0723ZM34.5191 79.3186L48.5898 88.066C48.9858 88.3121 49.4088 88.4575 49.8589 88.502C50.3147 88.5429 50.7753 88.4674 51.2405 88.2753L57.7581 85.3269C55.2584 83.395 52.6741 81.1003 50.0052 78.4429C47.3363 75.7855 45.4271 73.6894 44.2776 72.1549L34.5191 79.3186ZM109.141 96.4034C101.104 98.7906 93.3532 99.3821 85.8877 98.1778C78.4207 96.9761 71.0499 94.1141 63.7754 89.5918C63.4797 89.4079 63.1631 89.229 62.8257 89.0549C62.4883 88.8808 62.162 88.6601 61.8469 88.3929L53.1777 92.2818C52.0634 92.8298 50.8805 93.0695 49.629 93.0009C48.3774 92.9323 47.231 92.5743 46.1896 91.9269L26.4528 79.6572L42.1402 68.1522L54.2037 48.7472L57.5337 29.6616L77.3436 41.9769C78.3825 42.6228 79.218 43.4809 79.8503 44.5513C80.4816 45.6176 80.7981 46.7716 80.7998 48.0133L81.1067 57.5841L82.9581 58.7351C90.2352 63.259 96.0633 68.6024 100.443 74.7653C104.826 80.9272 107.726 88.1399 109.141 96.4034Z" fill="black"/>
</g>
<defs>
<clipPath id="clip0_146_605">
<rect width="109" height="109" fill="white" transform="translate(150.208 57.7603) rotate(121.868)"/>
</clipPath>
</defs>
</svg>
